<svg width="86" height="85" viewBox="0 0 86 85" fill="none" xmlns="http://www.w3.org/2000/svg">
<circle cx="43" cy="42.5" r="41.5" stroke="#B5B7B6" stroke-width="2"/>
<path d="M34.4529 24.885V15.4546H69.2729V36.4917H60.9306L51.8629 45.5594V36.4917H46.0596" stroke="#B5B7B6" stroke-width="2.17625"/>
<circle cx="45.6966" cy="27.4241" r="1.08813" fill="#B5B7B6"/>
<circle cx="51.5" cy="27.4241" r="1.08813" fill="#B5B7B6"/>
<circle cx="57.3033" cy="27.4241" r="1.08813" fill="#B5B7B6"/>
<path d="M42.0696 41.9322C42.0696 47.648 37.9083 52.088 33.0019 52.088C28.0955 52.088 23.9342 47.648 23.9342 41.9322C23.9342 36.2164 28.0955 31.7764 33.0019 31.7764C37.9083 31.7764 42.0696 36.2164 42.0696 41.9322Z" stroke="#B5B7B6" stroke-width="2.17625"/>
<path d="M23.2086 41.5696C25.264 42.295 30.3903 42.5127 34.4526 37.5798C35.6133 42.2225 40.4977 42.1741 42.7949 41.5696" stroke="#B5B7B6" stroke-width="2.17625"/>
<path d="M28.6494 51.3626V56.4405C24.4178 57.4078 15.9546 60.1402 15.9546 63.332C15.9546 66.5239 15.9546 68.5308 15.9546 69.1354H50.7746V64.3367C50.7746 63.6793 50.6074 63.0256 50.1896 62.5181C48.5574 60.5355 44.6317 57.4485 38.0798 56.4405C38.0798 52.6684 38.0798 50.7581 38.0798 50.6372" stroke="#B5B7B6" stroke-width="2.17625"/>
</svg>
