<svg width="86" height="85" viewBox="0 0 86 85" fill="none" xmlns="http://www.w3.org/2000/svg">
<circle cx="43" cy="42.5" r="41.5" stroke="#B5B7B6" stroke-width="2"/>
<mask id="path-2-inside-1_0_242" fill="white">
<rect x="29.8231" y="20.0908" width="40.9952" height="26.9638" rx="0.728751"/>
</mask>
<rect x="29.8231" y="20.0908" width="40.9952" height="26.9638" rx="0.728751" stroke="#B5B7B6" stroke-width="4.37251" mask="url(#path-2-inside-1_0_242)"/>
<path d="M26.8948 30.2935H23.5973C23.1948 30.2935 22.8685 30.6197 22.8685 31.0222V55.4354C22.8685 55.8378 23.1948 56.1641 23.5973 56.1641H62.4029C62.8054 56.1641 63.1317 55.8378 63.1317 55.4354V50.3341" stroke="#B5B7B6" stroke-width="2.18625"/>
<path d="M19.2083 39.0383H15.9108C15.5083 39.0383 15.182 39.3646 15.182 39.7671V64.1802C15.182 64.5827 15.5083 64.909 15.9108 64.909H54.7164C55.1189 64.909 55.4452 64.5827 55.4452 64.1802V59.079" stroke="#B5B7B6" stroke-width="2.18625"/>
</svg>
