<svg width="85" height="85" viewBox="0 0 85 85" fill="none" xmlns="http://www.w3.org/2000/svg">
<g id="Group 15">
<circle id="Ellipse 12" cx="42.5" cy="42.5" r="42.5" fill="#DCCE90"/>
<g id="man">
<path id="Vector 2" d="M33.9529 24.885V15.4545H68.7729V36.4916H60.4306L51.3629 45.5593V36.4916H45.5596" stroke="white" stroke-width="2.17625"/>
<circle id="Ellipse 3" cx="45.1966" cy="27.4239" r="1.08813" fill="white"/>
<circle id="Ellipse 4" cx="51" cy="27.4239" r="1.08813" fill="white"/>
<circle id="Ellipse 5" cx="56.8033" cy="27.4239" r="1.08813" fill="white"/>
<path id="Ellipse 6" d="M41.5696 41.9323C41.5696 47.648 37.4083 52.0881 32.5019 52.0881C27.5955 52.0881 23.4342 47.648 23.4342 41.9323C23.4342 36.2165 27.5955 31.7764 32.5019 31.7764C37.4083 31.7764 41.5696 36.2165 41.5696 41.9323Z" stroke="white" stroke-width="2.17625"/>
<path id="Vector 3" d="M22.7086 41.5696C24.764 42.295 29.8903 42.5126 33.9526 37.5798C35.1133 42.2224 39.9977 42.1741 42.2949 41.5696" stroke="white" stroke-width="2.17625"/>
<path id="Vector 4" d="M28.1494 51.3627V56.4406C23.9178 57.4078 15.4546 60.1402 15.4546 63.3321C15.4546 66.5239 15.4546 68.5309 15.4546 69.1354H50.2746V64.3367C50.2746 63.6793 50.1074 63.0257 49.6896 62.5182C48.0574 60.5356 44.1317 57.4486 37.5798 56.4406C37.5798 52.6684 37.5798 50.7582 37.5798 50.6373" stroke="white" stroke-width="2.17625"/>
</g>
</g>
</svg>
