<svg width="86" height="85" viewBox="0 0 86 85" fill="none" xmlns="http://www.w3.org/2000/svg">
<circle cx="43" cy="42.5" r="42.5" fill="#29B4AD"/>
<path d="M34.4529 24.885V15.4546H69.2729V36.4917H60.9306L51.8629 45.5594V36.4917H46.0596" stroke="white" stroke-width="2.17625"/>
<circle cx="45.6966" cy="27.4239" r="1.08813" fill="white"/>
<circle cx="51.5" cy="27.4239" r="1.08813" fill="white"/>
<circle cx="57.3033" cy="27.4239" r="1.08813" fill="white"/>
<path d="M42.0696 41.9323C42.0696 47.6481 37.9083 52.0882 33.0019 52.0882C28.0955 52.0882 23.9342 47.6481 23.9342 41.9323C23.9342 36.2166 28.0955 31.7765 33.0019 31.7765C37.9083 31.7765 42.0696 36.2166 42.0696 41.9323Z" stroke="white" stroke-width="2.17625"/>
<path d="M23.2086 41.5696C25.264 42.295 30.3903 42.5127 34.4526 37.5798C35.6133 42.2225 40.4977 42.1741 42.7949 41.5696" stroke="white" stroke-width="2.17625"/>
<path d="M28.6494 51.3627V56.4407C24.4178 57.4079 15.9546 60.1403 15.9546 63.3321C15.9546 66.524 15.9546 68.531 15.9546 69.1355H50.7746V64.3368C50.7746 63.6794 50.6074 63.0258 50.1896 62.5182C48.5574 60.5356 44.6317 57.4486 38.0798 56.4407C38.0798 52.6685 38.0798 50.7582 38.0798 50.6373" stroke="white" stroke-width="2.17625"/>
</svg>
